<svg width="17" height="17" viewBox="0 0 17 17" fill="none" xmlns="http://www.w3.org/2000/svg">
<g clip-path="url(#clip0_636_124)">
<path d="M1.4293 14.3828C2.22972 15.5261 5.70905 16.4243 7.35239 14.2837C9.1303 15.1337 12.0628 14.8702 14.4499 13.5385C14.7814 13.3536 15.0959 13.1199 15.2878 12.7919C15.7221 12.0517 15.7327 11.0246 14.9408 9.50951C13.6197 6.21222 11.2447 3.31868 10.2856 2.15489C10.0887 1.97497 8.83209 1.71997 8.06639 1.47489C7.7278 1.37076 7.09809 1.30064 6.34443 2.29372C5.98672 2.76476 4.36393 3.92076 6.42305 4.69851C6.7418 4.77997 6.97697 4.92943 8.43189 4.6631C8.62172 4.63051 9.09489 4.6631 9.42851 5.24889L10.1248 6.24481C10.1902 6.33706 10.2316 6.44419 10.2452 6.55647C10.3671 7.61897 10.3628 8.94781 10.955 9.62072C10.0405 8.95985 7.6513 8.17431 5.85072 10.4091M1.41797 9.16597C2.22846 8.4434 3.2618 8.01992 4.34628 7.96593C5.43075 7.91194 6.50105 8.23068 7.3793 8.86918" stroke="white" stroke-width="1.5" stroke-linecap="round" stroke-linejoin="round"/>
</g>
<defs>
<clipPath id="clip0_636_124">
<rect width="17" height="17" fill="white"/>
</clipPath>
</defs>
</svg>
