<svg width="19" height="19" viewBox="0 0 19 19" fill="none" xmlns="http://www.w3.org/2000/svg">
<path d="M10.0591 15.042C10.4237 15.042 10.6901 14.7135 10.6901 14.3596C10.6901 13.5691 9.5026 13.0628 9.5026 13.0628C9.5026 13.0628 8.3151 13.6016 8.3151 14.3596C8.3151 14.7135 8.5815 15.042 8.94606 15.042C9.199 15.042 9.38662 14.8947 9.5026 14.6857C9.61858 14.8947 9.80621 15.042 10.0591 15.042ZM8.71094 11.0837C8.71094 12.1766 7.91333 13.0628 6.92969 13.0628C5.94604 13.0628 5.14844 12.1766 5.14844 11.0837C5.14844 9.99076 5.94604 9.10449 6.92969 9.10449C7.91333 9.10449 8.71094 9.99076 8.71094 11.0837ZM12.0755 13.0628C13.0592 13.0628 13.8568 12.1766 13.8568 11.0837C13.8568 9.99076 13.0592 9.10449 12.0755 9.10449C11.0919 9.10449 10.2943 9.99076 10.2943 11.0837C10.2943 12.1766 11.0919 13.0628 12.0755 13.0628Z" fill="white"/>
<path fill-rule="evenodd" clip-rule="evenodd" d="M5.20809 14.2514C4.25809 14.2514 4.26482 14.0143 4.29293 13.0461C4.29847 12.8557 4.3048 12.6368 4.3048 12.3858C4.3048 11.7822 4.12668 11.4968 3.91174 11.152C3.5832 10.6256 3.16797 9.95936 3.16797 7.80722C3.16797 0.56426 15.8346 0.56426 15.8346 7.80722C15.8346 9.95976 15.4194 10.6256 15.0909 11.152C14.8759 11.4968 14.6978 11.7822 14.6978 12.3858C14.6978 12.6368 14.7041 12.8557 14.7097 13.0461C14.7374 14.0143 14.7445 14.251 13.7945 14.251C12.6577 14.251 12.6577 15.2683 12.6577 15.9467C12.6577 16.6252 11.125 16.6252 9.5013 16.6252C7.87759 16.6252 6.34493 16.6252 6.34493 15.9467C6.34493 15.2683 6.34493 14.2514 5.20809 14.2514ZM5.20809 13.4593C5.16428 13.4593 5.12046 13.4585 5.07668 13.4569L5.07747 13.3342C5.07866 13.2666 5.08143 13.1838 5.0838 13.09C5.08934 12.8925 5.09647 12.6459 5.09647 12.3854C5.09647 11.5348 4.78376 11.0424 4.55616 10.6833C4.5076 10.6084 4.46472 10.5385 4.42751 10.4736C4.22643 10.1137 3.95964 9.49307 3.95964 7.80722C3.95964 6.25714 4.62464 5.12664 5.62728 4.36228C6.6513 3.5817 8.05651 3.16686 9.5013 3.16686C10.9461 3.16686 12.3513 3.5817 13.3753 4.36268C14.378 5.12703 15.043 6.25753 15.043 7.80761C15.043 9.49347 14.7762 10.1137 14.5751 10.4736C14.5376 10.5387 14.4947 10.6089 14.4464 10.6841C14.2188 11.0428 13.9061 11.5352 13.9061 12.3862C13.9061 12.6463 13.9133 12.8929 13.9188 13.09C13.9216 13.1838 13.9239 13.2669 13.9251 13.3342C13.9259 13.3804 13.9262 13.4213 13.9259 13.4569C13.8821 13.4585 13.8383 13.4593 13.7945 13.4593C13.3908 13.4593 13.0163 13.5512 12.7 13.7609C12.3826 13.9715 12.1874 14.2581 12.0699 14.5388C11.9036 14.9346 11.8727 15.3787 11.8672 15.6989C11.7711 15.7243 11.6736 15.7436 11.5751 15.7567C11.0581 15.8319 10.3349 15.8335 9.5013 15.8335C8.66768 15.8335 7.94449 15.8316 7.42714 15.7567C7.32878 15.7436 7.23135 15.7243 7.13541 15.6989C7.12986 15.3783 7.09859 14.935 6.93274 14.5388C6.81518 14.2581 6.62003 13.9715 6.30257 13.7609C5.98591 13.5512 5.61184 13.4593 5.20809 13.4593Z" fill="white"/>
</svg>
