<svg width="22" height="22" viewBox="0 0 22 22" fill="none" xmlns="http://www.w3.org/2000/svg">
<path d="M9.8615 13.9262C10.1457 14.2109 10.5105 14.3405 10.956 14.3148C11.4015 14.2898 11.7266 14.1297 11.9313 13.8345L16.7466 7.12175L9.999 11.9031C9.69222 12.1072 9.52142 12.4244 9.48658 12.8546C9.45175 13.2848 9.57672 13.6414 9.8615 13.9262ZM11 4.5835C11.8427 4.5835 12.6097 4.68617 13.3008 4.8915C13.9926 5.09622 14.6819 5.40942 15.3688 5.83108L14.5255 6.40217C13.9859 6.10761 13.4273 5.88364 12.8498 5.73025C12.2723 5.57686 11.6557 5.50017 11 5.50017C8.96806 5.50017 7.23769 6.21456 5.80892 7.64333C4.38014 9.07211 3.66606 10.8022 3.66667 12.8335C3.66667 13.4752 3.75467 14.1092 3.93067 14.7356C4.10667 15.362 4.35478 15.9502 4.675 16.5002H17.325C17.6764 15.9196 17.9324 15.3161 18.0932 14.6898C18.2539 14.0634 18.3339 13.4141 18.3333 12.7418C18.3333 12.1918 18.2624 11.6131 18.1207 11.0057C17.9789 10.3982 17.7546 9.83234 17.4478 9.308L18.0198 8.46467C18.4659 9.22978 18.7816 9.94967 18.9668 10.6243C19.1519 11.299 19.2463 12.0012 19.25 12.7308C19.2537 13.5192 19.166 14.2549 18.9869 14.9382C18.8085 15.6214 18.5304 16.3101 18.1527 17.0043C18.0794 17.1266 17.9679 17.2259 17.8182 17.3023C17.6684 17.3786 17.5041 17.4168 17.325 17.4168H4.675C4.50694 17.4168 4.35111 17.3759 4.2075 17.294C4.0645 17.2115 3.94411 17.0914 3.84633 16.9338C3.54322 16.399 3.28472 15.7959 3.07083 15.1243C2.85694 14.4526 2.75 13.6891 2.75 12.8335C2.75 11.7066 2.96389 10.643 3.39167 9.64258C3.81883 8.6422 4.40214 7.76617 5.14158 7.0145C5.88103 6.26283 6.75553 5.66945 7.76508 5.23433C8.77464 4.79922 9.85294 4.58228 11 4.5835Z" fill="white"/>
</svg>
