<svg width="24" height="24" viewBox="0 0 24 24" fill="none" xmlns="http://www.w3.org/2000/svg">
<path d="M12 22C17.5228 22 22 17.5228 22 12C22 6.47715 17.5228 2 12 2C6.47715 2 2 6.47715 2 12C2 17.5228 6.47715 22 12 22Z" stroke="white" stroke-width="2"/>
<path d="M2.5 12.5H22" stroke="white" stroke-width="2" stroke-linecap="round"/>
<path d="M9.5 9.5C10.6046 9.5 11.5 8.60457 11.5 7.5C11.5 6.39543 10.6046 5.5 9.5 5.5C8.39543 5.5 7.5 6.39543 7.5 7.5C7.5 8.60457 8.39543 9.5 9.5 9.5Z" stroke="white" stroke-width="2"/>
<path d="M15.5 15.5H21.5M17 8.5H21M12.5 18.5H19.5" stroke="white" stroke-width="2" stroke-linecap="round"/>
<path d="M20 5.99902C21.3017 7.72855 22.0038 9.83539 22 12C22 15.904 19.7625 19.286 16.5 20.9325M2.2 10C2.069 10.646 2 11.315 2 12C2 12.8635 2.1095 13.701 2.315 14.5" stroke="white" stroke-width="2"/>
</svg>
