<svg width="24" height="24" viewBox="0 0 24 24" fill="none" xmlns="http://www.w3.org/2000/svg">
<path d="M6.71214 19H17.2891C17.4685 19 17.6221 18.9263 17.7501 18.779C17.8781 18.6317 17.9295 18.4683 17.9041 18.289L16.6521 9.519C16.6261 9.36567 16.5555 9.24067 16.4401 9.144C16.3248 9.048 16.1901 9 16.0361 9H7.96314C7.80981 9 7.67514 9.048 7.55914 9.144C7.44381 9.24 7.37347 9.365 7.34814 9.519L6.09614 18.289C6.07081 18.4683 6.12214 18.6317 6.25014 18.779C6.37814 18.9263 6.53281 19 6.71214 19ZM12.0001 8C12.2835 8 12.5211 7.904 12.7131 7.712C12.9051 7.52 13.0008 7.28267 13.0001 7C12.9995 6.71733 12.9035 6.48 12.7121 6.288C12.5208 6.096 12.2835 6 12.0001 6C11.7168 6 11.4795 6.096 11.2881 6.288C11.0968 6.48 11.0008 6.71733 11.0001 7C10.9995 7.28267 11.0955 7.52033 11.2881 7.713C11.4808 7.90567 11.7181 8.00133 12.0001 8ZM13.7101 8H16.0561C16.4661 8 16.8195 8.13133 17.1161 8.394C17.4121 8.65667 17.5888 8.99133 17.6461 9.398L18.8981 18.168C18.9688 18.652 18.8435 19.0783 18.5221 19.447C18.2015 19.8157 17.7905 20 17.2891 20H6.71114C6.20981 20 5.79847 19.8157 5.47714 19.447C5.15581 19.0783 5.03047 18.6517 5.10114 18.167L6.35314 9.398C6.41114 8.99133 6.58781 8.65667 6.88314 8.394C7.18114 8.13133 7.53514 8 7.94514 8H10.2921C10.2035 7.85867 10.1328 7.70267 10.0801 7.532C10.0268 7.36067 10.0001 7.18333 10.0001 7C10.0001 6.436 10.1925 5.96167 10.5771 5.577C10.9618 5.19233 11.4361 5 12.0001 5C12.5641 5 13.0385 5.19233 13.4231 5.577C13.8078 5.96167 14.0001 6.436 14.0001 7C14.0001 7.18333 13.9738 7.36067 13.9211 7.532C13.8685 7.70267 13.7981 7.85867 13.7101 8Z" fill="white"/>
</svg>
