<svg width="16" height="16" viewBox="0 0 16 16" fill="none" xmlns="http://www.w3.org/2000/svg">
<path d="M11.2008 2.8001C11.2008 2.48184 11.0744 2.17661 10.8493 1.95157C10.6243 1.72653 10.319 1.6001 10.0008 1.6001H6.00078C5.68252 1.6001 5.3773 1.72653 5.15225 1.95157C4.92721 2.17661 4.80078 2.48184 4.80078 2.8001V13.2001C4.80078 13.5184 4.92721 13.8236 5.15225 14.0486C5.3773 14.2737 5.68252 14.4001 6.00078 14.4001H10.0008C10.319 14.4001 10.6243 14.2737 10.8493 14.0486C11.0744 13.8236 11.2008 13.5184 11.2008 13.2001V2.8001ZM5.60078 10.4033H7.60078C7.70687 10.4033 7.80861 10.3612 7.88362 10.2861C7.95864 10.2111 8.00078 10.1094 8.00078 10.0033C8.00078 9.89721 7.95864 9.79547 7.88362 9.72046C7.80861 9.64544 7.70687 9.6033 7.60078 9.6033H5.60078V8.4001H6.80078C6.90687 8.4001 7.00861 8.35796 7.08362 8.28294C7.15864 8.20793 7.20078 8.10618 7.20078 8.0001C7.20078 7.89401 7.15864 7.79227 7.08362 7.71725C7.00861 7.64224 6.90687 7.6001 6.80078 7.6001H5.60078V6.4001H7.60078C7.70687 6.4001 7.80861 6.35795 7.88362 6.28294C7.95864 6.20793 8.00078 6.10618 8.00078 6.0001C8.00078 5.89401 7.95864 5.79227 7.88362 5.71726C7.80861 5.64224 7.70687 5.6001 7.60078 5.6001H5.60078V4.4001H6.80078C6.90687 4.4001 7.00861 4.35795 7.08362 4.28294C7.15864 4.20793 7.20078 4.10618 7.20078 4.0001C7.20078 3.89401 7.15864 3.79227 7.08362 3.71726C7.00861 3.64224 6.90687 3.6001 6.80078 3.6001H5.60078V2.8001C5.60078 2.69401 5.64292 2.59227 5.71794 2.51726C5.79295 2.44224 5.89469 2.4001 6.00078 2.4001H10.0008C10.1069 2.4001 10.2086 2.44224 10.2836 2.51726C10.3586 2.59227 10.4008 2.69401 10.4008 2.8001V13.2001C10.4008 13.3062 10.3586 13.4079 10.2836 13.4829C10.2086 13.558 10.1069 13.6001 10.0008 13.6001H6.00078C5.89469 13.6001 5.79295 13.558 5.71794 13.4829C5.64292 13.4079 5.60078 13.3062 5.60078 13.2001V12.4001H6.80078C6.90687 12.4001 7.00861 12.358 7.08362 12.2829C7.15864 12.2079 7.20078 12.1062 7.20078 12.0001C7.20078 11.894 7.15864 11.7923 7.08362 11.7173C7.00861 11.6422 6.90687 11.6001 6.80078 11.6001H5.60078V10.4033Z" fill="white"/>
</svg>
